<?xml version="1.0" encoding="UTF-8"?>
<!DOCTYPE svg PUBLIC "-//W3C//DTD SVG 1.1//EN" "http://www.w3.org/Graphics/SVG/1.1/DTD/svg11.dtd">
<svg xmlns="http://www.w3.org/2000/svg" version="1.1" width="225px" height="225px" style="shape-rendering:geometricPrecision; text-rendering:geometricPrecision; image-rendering:optimizeQuality; fill-rule:evenodd; clip-rule:evenodd" xmlns:xlink="http://www.w3.org/1999/xlink">
<g><path style="opacity:1" fill="#000000" d="M -0.5,-0.5 C 74.5,-0.5 149.5,-0.5 224.5,-0.5C 224.5,74.5 224.5,149.5 224.5,224.5C 149.5,224.5 74.5,224.5 -0.5,224.5C -0.5,149.5 -0.5,74.5 -0.5,-0.5 Z"/></g>
<g><path style="opacity:1" fill="#b8962e" d="M 24.5,83.5 C 26.6277,86.6822 28.2944,90.1822 29.5,94C 27.6173,97.6417 26.1173,101.475 25,105.5C 23.0169,101.722 21.5169,97.7219 20.5,93.5C 21.6439,90.0637 22.9772,86.7304 24.5,83.5 Z"/></g>
<g><path style="opacity:1" fill="#f8f8f8" d="M 3.5,95.5 C 7.64631,94.353 11.9796,94.1864 16.5,95C 19.4785,101.122 22.3119,107.289 25,113.5C 27.9996,107.329 30.4996,100.996 32.5,94.5C 36.5546,94.1758 40.5546,94.5091 44.5,95.5C 39.8333,106.5 35.1667,117.5 30.5,128.5C 26.2846,129.798 22.1179,129.798 18,128.5C 13.6287,117.191 8.79539,106.191 3.5,95.5 Z"/></g>
<g><path style="opacity:1" fill="#fafafa" d="M 80.5,107.5 C 80.5,110.167 80.5,112.833 80.5,115.5C 75.6367,115.181 70.97,115.514 66.5,116.5C 66.5,117.833 66.5,119.167 66.5,120.5C 72.1667,120.5 77.8333,120.5 83.5,120.5C 83.5,123.5 83.5,126.5 83.5,129.5C 73.8333,129.5 64.1667,129.5 54.5,129.5C 54.5,117.833 54.5,106.167 54.5,94.5C 64.1667,94.5 73.8333,94.5 83.5,94.5C 83.5,97.5 83.5,100.5 83.5,103.5C 77.8333,103.5 72.1667,103.5 66.5,103.5C 66.5,104.833 66.5,106.167 66.5,107.5C 71.1667,107.5 75.8333,107.5 80.5,107.5 Z"/></g>
<g><path style="opacity:1" fill="#f9f9f9" d="M 95.5,94.5 C 103.174,94.3336 110.841,94.5003 118.5,95C 130.506,101.695 131.506,109.695 121.5,119C 124.026,122.026 126.36,125.193 128.5,128.5C 120.293,131.384 114.46,129.051 111,121.5C 109.989,120.663 108.822,120.33 107.5,120.5C 107.5,123.5 107.5,126.5 107.5,129.5C 103.5,129.5 99.5,129.5 95.5,129.5C 95.5,117.833 95.5,106.167 95.5,94.5 Z"/></g>
<g><path style="opacity:1" fill="#f6f6f6" d="M 151.5,93.5 C 159.874,92.0688 166.874,94.4022 172.5,100.5C 170.781,103.219 168.447,105.219 165.5,106.5C 161.496,103.238 157.163,102.738 152.5,105C 148.59,109.594 148.59,114.261 152.5,119C 157.44,121.399 161.773,120.565 165.5,116.5C 168.743,118.548 170.91,121.215 172,124.5C 161.073,133.027 150.74,132.36 141,122.5C 134.52,109.101 138.02,99.4344 151.5,93.5 Z"/></g>
<g><path style="opacity:1" fill="#f8f8f8" d="M 194.5,94.5 C 198.767,94.203 202.934,94.5363 207,95.5C 211.803,106.75 216.303,118.083 220.5,129.5C 216.563,129.793 212.73,129.46 209,128.5C 206.138,122.248 203.472,115.915 201,109.5C 198.163,116.017 195.329,122.517 192.5,129C 188.167,129.667 183.833,129.667 179.5,129C 184.795,117.612 189.795,106.112 194.5,94.5 Z"/></g>
<g><path style="opacity:1" fill="#040404" d="M 107.5,103.5 C 114.284,102.185 116.617,104.685 114.5,111C 112.19,111.497 109.857,111.663 107.5,111.5C 107.5,108.833 107.5,106.167 107.5,103.5 Z"/></g>
<g><path style="opacity:1" fill="#757575" d="M 80.5,107.5 C 81.4767,110.287 81.81,113.287 81.5,116.5C 76.5,116.5 71.5,116.5 66.5,116.5C 70.97,115.514 75.6367,115.181 80.5,115.5C 80.5,112.833 80.5,110.167 80.5,107.5 Z"/></g>
</svg>
